<?xml version="1.0" encoding="UTF-8" standalone="no"?>
<!-- Generator: Adobe Illustrator 16.0.0, SVG Export Plug-In . SVG Version: 6.00 Build 0)  -->

<svg
   version="1.1"
   id="Layer_1"
   x="0px"
   y="0px"
   width="18.375999"
   height="18.546"
   viewBox="0 0 18.375999 18.546"
   enable-background="new 0 0 50 50"
   xml:space="preserve"
   sodipodi:docname="user-icon.svg"
   inkscape:version="1.2.1 (9c6d41e410, 2022-07-14)"
   xmlns:inkscape="http://www.inkscape.org/namespaces/inkscape"
   xmlns:sodipodi="http://sodipodi.sourceforge.net/DTD/sodipodi-0.dtd"
   xmlns="http://www.w3.org/2000/svg"
   xmlns:svg="http://www.w3.org/2000/svg"><defs
   id="defs11" /><sodipodi:namedview
   id="namedview9"
   pagecolor="#ffffff"
   bordercolor="#000000"
   borderopacity="0.25"
   inkscape:showpageshadow="2"
   inkscape:pageopacity="0.0"
   inkscape:pagecheckerboard="0"
   inkscape:deskcolor="#d1d1d1"
   showgrid="false"
   inkscape:zoom="16.28"
   inkscape:cx="9.7972973"
   inkscape:cy="10.350123"
   inkscape:window-width="2400"
   inkscape:window-height="1271"
   inkscape:window-x="2391"
   inkscape:window-y="-9"
   inkscape:window-maximized="1"
   inkscape:current-layer="Layer_1" />
<path
   stroke="#000000"
   stroke-miterlimit="10"
   d="m 17.876,9.358 c 0,4.799 -3.89,8.688 -8.688,8.688 v 0 C 4.39,18.046 0.5,14.157 0.5,9.358 V 9.188 C 0.5,4.389 4.39,0.5 9.188,0.5 v 0 c 4.799,0 8.688,3.89 8.688,8.688 z"
   id="path2" />
<path
   fill="#ffffff"
   stroke="#ffffff"
   stroke-miterlimit="10"
   d="m 11.444,6.234 c 0,1.246 -1.011,2.258 -2.257,2.258 v 0 C 7.94,8.492 6.93,7.48 6.93,6.234 V 5.978 c 0,-1.246 1.01,-2.257 2.257,-2.257 v 0 c 1.246,0 2.257,1.011 2.257,2.257 z"
   id="path4" />
<path
   fill="#ffffff"
   stroke="#ffffff"
   stroke-miterlimit="10"
   d="m 13.617,13.644 c 0,0 0.494,0 -4.43,0 -1.602,0 -4.429,0.134 -4.429,0 0,-2.657 1.983,-4.812 4.429,-4.812 2.448,0 4.43,2.155 4.43,4.812 z"
   id="path6" />
</svg>
